<?xml version="1.0" encoding="UTF-8"?>
<svg xmlns="http://www.w3.org/2000/svg" xmlns:xlink="http://www.w3.org/1999/xlink" viewBox="0 0 40 40" width="40px" height="40px">
<g id="surface33411200">
<path style=" stroke:none;fill-rule:nonzero;fill:rgb(100%,100%,100%);fill-opacity:1;" d="M 12.316406 22.5 L 25.398438 14.617188 L 16.164062 24.226562 L 24.261719 30.589844 C 25.714844 31.226562 26.242188 29.898438 26.242188 29.898438 L 29.953125 11.0625 C 29.953125 11.0625 30.015625 10.582031 29.984375 10.488281 C 29.722656 9.589844 28.273438 10.238281 28.273438 10.238281 L 7.089844 18.605469 C 7.089844 18.605469 6.085938 18.953125 6.167969 19.589844 C 6.246094 20.226562 7.0625 20.519531 7.0625 20.519531 L 12.320312 22.5 "/>
<path style=" stroke:none;fill-rule:nonzero;fill:rgb(100%,100%,100%);fill-opacity:1;" d="M 30.722656 10.269531 C 30.546875 9.667969 30.0625 9.292969 29.394531 9.246094 C 29.261719 9.238281 28.503906 9.269531 27.996094 9.527344 L 27.992188 9.523438 L 6.839844 17.878906 C 6.160156 18.113281 5.410156 18.667969 5.394531 19.484375 C 5.390625 19.550781 5.394531 19.617188 5.40625 19.683594 C 5.539062 20.761719 6.675781 21.199219 6.792969 21.238281 L 11.695312 23.085938 C 12.074219 24.296875 13.316406 28.292969 13.585938 29.148438 C 13.765625 29.71875 14.0625 30.460938 14.605469 30.664062 C 14.761719 30.730469 14.929688 30.761719 15.101562 30.761719 C 15.574219 30.761719 15.882812 30.523438 15.996094 30.417969 L 18.996094 27.429688 L 23.789062 31.191406 C 23.839844 31.234375 23.894531 31.265625 23.953125 31.292969 C 24.351562 31.46875 24.703125 31.53125 25.003906 31.53125 C 25.320312 31.53125 25.578125 31.460938 25.773438 31.382812 C 26.59375 31.046875 26.921875 30.269531 26.957031 30.183594 C 26.972656 30.136719 26.988281 30.09375 26.996094 30.046875 L 30.714844 11.164062 C 30.796875 10.519531 30.753906 10.367188 30.722656 10.269531 Z M 13.230469 22.84375 L 20.820312 18.273438 L 15.613281 23.695312 C 15.519531 23.789062 15.46875 23.910156 15.4375 24.035156 C 15.433594 24.042969 14.664062 27.441406 14.664062 27.441406 Z M 29.195312 10.917969 L 25.507812 29.652344 C 25.464844 29.730469 25.355469 29.894531 25.191406 29.960938 C 25.050781 30.015625 24.875 30.003906 24.65625 29.917969 L 17.308594 24.148438 L 25.953125 15.152344 C 26.21875 14.875 26.238281 14.441406 26 14.140625 C 25.757812 13.839844 25.332031 13.761719 25.003906 13.960938 L 12.242188 21.648438 L 7.328125 19.796875 C 7.179688 19.742188 7.023438 19.628906 6.957031 19.550781 C 7.042969 19.476562 7.210938 19.378906 7.371094 19.324219 L 28.558594 10.953125 C 28.570312 10.945312 28.582031 10.941406 28.59375 10.9375 C 28.789062 10.851562 29.050781 10.789062 29.210938 10.777344 C 29.203125 10.855469 29.195312 10.917969 29.195312 10.917969 Z M 29.195312 10.917969 "/>
<path style=" stroke:none;fill-rule:nonzero;fill:rgb(100%,100%,100%);fill-opacity:1;" d="M 20 39.988281 C 8.976562 39.988281 0.0117188 31.019531 0.0117188 20 C 0.0117188 8.980469 8.976562 0.0117188 20 0.0117188 C 31.023438 0.0117188 39.988281 8.980469 39.988281 20 C 39.988281 31.019531 31.023438 39.988281 20 39.988281 Z M 20 1.550781 C 9.828125 1.550781 1.550781 9.828125 1.550781 20 C 1.550781 30.171875 9.828125 38.449219 20 38.449219 C 30.171875 38.449219 38.449219 30.171875 38.449219 20 C 38.449219 9.828125 30.171875 1.550781 20 1.550781 Z M 20 1.550781 "/>
</g>
</svg>
